<svg xmlns="http://www.w3.org/2000/svg" width="960" height="600" viewBox="0 0 960 600" role="img" aria-labelledby="title desc">
<title id="title">Scientific tool interface - schematic</title><desc id="desc">An original mock interface with file metadata and an illustrative damped curve, marked as demonstration content.</desc>
<rect width="960" height="600" fill="#e9eeeb"/><rect x="125" y="112" width="710" height="368" rx="8" fill="#fafbf6" stroke="#abc0b9"/>
<path d="M125 152h710M355 152v328" stroke="#cad6cf"/>
<circle cx="146" cy="132" r="3" fill="#bc8a60"/><circle cx="158" cy="132" r="3" fill="#a5bcb0"/><circle cx="170" cy="132" r="3" fill="#69968e"/>
<g font-family="monospace" fill="#526a67"><text x="390" y="136" font-size="10" letter-spacing="1">INSPECTION / DEMO</text><text x="150" y="189" font-size="11">example.fits</text><text x="150" y="222" font-size="10">HDU</text><text x="274" y="222" font-size="10">PRIMARY</text><text x="150" y="249" font-size="10">NAXIS</text><text x="302" y="249" font-size="10">2</text><text x="150" y="276" font-size="10">BUNIT</text><text x="274" y="276" font-size="10">unknown</text><text x="150" y="316" font-size="10">PROVENANCE</text><text x="150" y="341" font-size="10" fill="#839894">source: TODO</text><text x="150" y="366" font-size="10" fill="#839894">units: TODO</text></g>
<g fill="none" stroke="#d0dcd4" stroke-width=".7"><path d="M405 197H795M405 237H795M405 277H795M405 317H795M405 357H795M405 397H795M450 197V397M520 197V397M590 197V397M660 197V397M730 197V397"/></g>
<path d="M405 197v200h390" fill="none" stroke="#607e78"/><path d="M406 239C420 174 436 184 450 259S480 368 495 296S523 219 542 283S570 337 592 297S620 260 642 294S670 321 689 297S720 278 739 296S767 309 791 297" fill="none" stroke="#286b70" stroke-width="2"/>
<g font-family="Arial,sans-serif" fill="#526a67"><text x="405" y="438" font-size="10" letter-spacing="1.4">ILLUSTRATIVE CURVE / NO MEASUREMENTS</text><text x="40" y="42" font-size="12" letter-spacing="3">SCIENTIFIC WORKFLOWS</text><text x="40" y="566" font-size="11" letter-spacing="2">INTERFACE SKETCH / DEMO</text><text x="740" y="566" font-size="11">original vector illustration</text></g>
</svg>
